<svg width="175" height="34" viewBox="0 0 175 34" fill="none" xmlns="http://www.w3.org/2000/svg">
<g clip-path="url(#clip0_21_12477)">
<path d="M20.5879 2.99433L5.16306 11.8027C5.03376 11.875 5.03807 12.0579 5.16737 12.1259L7.52052 13.3764C7.57655 13.4061 7.64551 13.4061 7.70154 13.3764L20.3983 6.2225C20.5232 6.1502 20.6784 6.23952 20.6784 6.38412V8.78718C20.6784 8.85523 20.6439 8.91477 20.5836 8.9488L10.5288 14.7501C10.4038 14.8225 10.4038 15.0011 10.5288 15.0734L20.5793 20.6196C20.6396 20.6536 20.6741 20.7131 20.6741 20.7812V23.4692C20.6741 23.6138 20.5189 23.7031 20.3896 23.6308L0.094715 12.1302C-0.0302696 12.0579 -0.0302696 11.8792 0.094715 11.8069L20.3983 0.0256048C20.5232 -0.0466994 20.6827 0.0426175 20.6827 0.187226V2.83271C20.6827 2.90076 20.6482 2.96031 20.5879 2.99433Z" fill="#0270FF"/>
<path d="M39.7059 15.4307L21.2556 25.868C21.1996 25.902 21.1263 25.902 21.066 25.868L2.61565 15.4307C2.55962 15.4009 2.49066 15.3967 2.43464 15.4307L0.115956 16.6258C-0.0176482 16.6939 -0.0176482 16.8768 0.107336 16.9533L21.066 28.9899C21.1263 29.0239 21.1953 29.0239 21.2556 28.9899L42.2142 16.9533C42.3435 16.881 42.3392 16.6939 42.2056 16.6258L39.8869 15.4307C39.8309 15.4009 39.7619 15.4009 39.7059 15.4307Z" fill="#164DB9"/>
<path d="M39.7059 20.4195L21.2556 30.8568C21.1996 30.8908 21.1263 30.8908 21.066 30.8568L2.61565 20.4195C2.55962 20.3897 2.49066 20.3854 2.43464 20.4195L0.115956 21.6146C-0.0176482 21.6827 -0.0176482 21.8655 0.107336 21.9421L21.066 33.9786C21.1263 34.0127 21.1953 34.0127 21.2556 33.9786L42.2142 21.9421C42.3435 21.8698 42.3392 21.6827 42.2056 21.6146L39.8869 20.4195C39.8309 20.3897 39.7619 20.3897 39.7059 20.4195Z" fill="#062EA6"/>
<path d="M37.0773 15.0606L21.9499 23.6266C21.8249 23.6989 21.6654 23.6095 21.6654 23.4649V20.7769C21.6654 20.7089 21.7042 20.6493 21.7603 20.6153L31.8107 15.0691C31.94 14.9968 31.94 14.8182 31.8107 14.7459L21.7559 8.94454C21.6999 8.91052 21.6611 8.85097 21.6611 8.78292V0.187226C21.6611 0.0426175 21.8206 -0.0466994 21.9456 0.0256048L42.2534 11.8069C42.3784 11.8792 42.3784 12.0579 42.2534 12.1302L40.0684 13.3679C40.008 13.4019 39.9391 13.4019 39.8787 13.3679L24.2815 4.44892C24.1565 4.37662 23.9971 4.46594 23.9971 4.61054V7.1497C23.9971 7.21775 24.0315 7.27729 24.0919 7.31132L37.0773 14.7416C37.2023 14.8139 37.2023 14.9926 37.0773 15.0649V15.0606Z" fill="#0270FF"/>
<path d="M21.0663 12.0026L14.2783 15.8645C14.1533 15.9368 14.1533 16.1154 14.2783 16.1877L16.722 17.553C16.7823 17.587 16.8513 17.587 16.9116 17.553L21.062 15.1074C21.1223 15.0734 21.1956 15.0734 21.2559 15.1074L25.4062 17.553C25.4666 17.587 25.5355 17.587 25.5959 17.553L28.0395 16.1877C28.1645 16.1154 28.1688 15.9368 28.0395 15.8645L21.2516 12.0026C21.1913 11.9685 21.1223 11.9685 21.062 12.0026H21.0663Z" fill="#BFE0FF"/>
<path d="M57.777 11.6024V15.9364H65.47V18.9817H57.777V24.9574H53.9326V8.55713H66.4914V11.6024H57.777Z" fill="white"/>
<path d="M67.8877 7.57471H71.5898V24.9575H67.8877V7.57471Z" fill="white"/>
<path d="M86.4761 12.3553V24.9575H82.9636V23.4562C81.9896 24.5577 80.5674 25.1447 78.9986 25.1447C75.7921 25.1447 73.5381 23.3626 73.5381 19.4752V12.3511H77.2402V18.935C77.2402 21.0446 78.1884 21.9803 79.8261 21.9803C81.4638 21.9803 82.7697 20.9042 82.7697 18.582V12.3511H86.4718L86.4761 12.3553Z" fill="white"/>
<path d="M88.9932 8.5573C88.9932 7.40894 89.9198 6.52002 91.2946 6.52002C92.6694 6.52002 93.596 7.36215 93.596 8.48925C93.596 9.70566 92.6694 10.5988 91.2946 10.5988C89.9198 10.5988 88.9932 9.70991 88.9932 8.56155V8.5573ZM89.4457 12.3511H93.1478V24.9533H89.4457V12.3511Z" fill="white"/>
<path d="M108.176 7.57481V24.9576H104.637V23.503C103.711 24.6046 102.357 25.1447 100.651 25.1447C97.0435 25.1447 94.2637 22.6141 94.2637 18.6544C94.2637 14.6947 97.0392 12.164 100.651 12.164C102.22 12.164 103.547 12.6574 104.474 13.6866V7.57056H108.176V7.57481ZM104.543 18.6544C104.543 16.4767 103.116 15.1625 101.289 15.1625C99.4613 15.1625 98.0132 16.4725 98.0132 18.6544C98.0132 20.8363 99.4355 22.1462 101.289 22.1462C103.142 22.1462 104.543 20.8363 104.543 18.6544Z" fill="white"/>
<path d="M109.599 23.3414L110.904 20.4833C112.305 21.4913 114.395 22.1931 116.387 22.1931C118.666 22.1931 119.593 21.4445 119.593 20.4365C119.593 17.3657 109.93 19.4753 109.93 13.3847C109.93 10.5946 112.21 8.27661 116.934 8.27661C119.024 8.27661 121.158 8.76998 122.705 9.7312L121.52 12.6149C119.977 11.7472 118.386 11.3261 116.912 11.3261C114.632 11.3261 113.753 12.1683 113.753 13.2018C113.753 16.2258 123.416 14.1375 123.416 20.16C123.416 22.8991 121.114 25.2426 116.365 25.2426C113.732 25.2426 111.073 24.4685 109.599 23.3457V23.3414Z" fill="white"/>
<path d="M133.078 24.3495C132.319 24.8897 131.203 25.1449 130.061 25.1449C127.044 25.1449 125.29 23.6222 125.29 20.6237V15.4476H123.32V12.6362H125.29V9.56543H128.992V12.6362H132.173V15.4476H128.992V20.5769C128.992 21.653 129.587 22.2399 130.582 22.2399C131.13 22.2399 131.673 22.0741 132.078 21.7721L133.073 24.3495H133.078Z" fill="white"/>
<path d="M145.516 17.7655V24.9577H142.051V23.3882C141.362 24.5366 140.034 25.1448 138.16 25.1448C135.169 25.1448 133.389 23.5031 133.389 21.3254C133.389 19.1478 134.979 17.5529 138.871 17.5529H141.814C141.814 15.9834 140.866 15.069 138.871 15.069C137.517 15.069 136.117 15.5156 135.19 16.2386L133.863 13.6867C135.263 12.7042 137.328 12.1641 139.371 12.1641C143.262 12.1641 145.521 13.9461 145.521 17.7655H145.516ZM141.814 20.9767V19.688H139.276C137.543 19.688 136.996 20.3217 136.996 21.1638C136.996 22.0782 137.78 22.6865 139.086 22.6865C140.319 22.6865 141.388 22.125 141.814 20.9767Z" fill="white"/>
<path d="M147.059 18.6544C147.059 14.8606 150.028 12.1641 154.183 12.1641C156.863 12.1641 158.98 13.3124 159.906 15.3752L157.031 16.8979C156.342 15.7027 155.321 15.1626 154.157 15.1626C152.282 15.1626 150.808 16.4513 150.808 18.6544C150.808 20.8576 152.282 22.1463 154.157 22.1463C155.321 22.1463 156.342 21.6317 157.031 20.411L159.906 21.9592C158.98 23.9752 156.868 25.1448 154.183 25.1448C150.028 25.1448 147.059 22.4525 147.059 18.6544Z" fill="white"/>
<path d="M166.475 20.0153L164.695 21.7506V24.9617H160.993V7.57471H164.695V17.4123L170.108 12.351H174.526L169.208 17.693L175 24.9575H170.514L166.48 20.0153H166.475Z" fill="white"/>
</g>
<defs>
<clipPath id="clip0_21_12477">
<rect width="175" height="34" fill="white"/>
</clipPath>
</defs>
</svg>
